<svg width="202" height="202" viewBox="0 0 202 202" fill="none" xmlns="http://www.w3.org/2000/svg">
<rect width="202" height="202" fill="white"/>
<path fill-rule="evenodd" clip-rule="evenodd" d="M140.64 104.444L121.419 99.1353L118.118 91.8935L117.535 95.6421L109.847 91.335L112.844 88.3066L108.372 78.5347L125.742 90.4036L126.606 96.4779L140.64 104.444ZM45.5834 96.4557L45.3126 96.6929L44.6927 96.3901L45.5834 96.4557ZM146.351 117.524C137.077 116.872 127.621 114.349 117.789 109.498C108.7 105.013 99.0432 101.794 89.1399 99.8395L97.9101 94.4334L88.9187 82.2145L94.9975 75.7723L91.1984 67.7744L73.9758 74.8834L91.3883 60.2766L149.682 102.933L148.84 106.623L151.556 106.001L148.463 108.272L147.555 112.249L147.126 114.13L150.338 113.165L146.586 116.491L146.351 117.524ZM155.711 117.009L152.617 115.498L155.998 115.747L155.711 117.009ZM26.0729 107.311C96.4015 91.8876 97.1676 145.921 150.946 134.128C99.0343 155.226 93.206 100.562 26.0729 107.311ZM174.271 100.822L128.936 64.6644L116.272 74.6614L91.7051 56L56.787 86.6284L56.659 86.0678L53.2233 84.9086L56.4001 85.061L55.4902 80.9499L53.2233 80.2224H55.3242L53.2233 71.0237L51.5899 78.1783L53.2233 77.7995L51.4514 78.7846L50.5069 82.9202L53.2233 82.2981L50.1304 84.5695L49.222 88.5461L48.7925 90.4269L52.005 89.4626L48.2532 92.7893L47.903 94.3228L47.633 93.1406L47.067 90.6626L43.6314 89.5031L46.8082 89.6558L45.8983 85.5447L43.6314 84.8171H45.732L43.6314 75.6184L41.9976 82.7731L43.6314 82.3943L41.8592 83.3794L40.915 87.515L43.6314 86.8931L40.5382 89.164L39.63 93.1406L39.2006 95.0216L42.4131 94.0574L38.6611 97.3839L37.8606 100.889C37.412 100.997 36.9638 101.109 36.5163 101.222L32.5665 99.2934L36.3115 99.5687L35.5069 96.0438L34.9406 93.5656L31.5052 92.4064L34.6817 92.5588L33.7721 88.4476L31.5052 87.7201H33.6061L31.5052 78.5216L29.8715 85.6762L31.5052 85.2973L29.7333 86.2826L28.7888 90.4182L31.5052 89.7958L28.412 92.0672L27.5042 96.0438L27.0746 97.9249L30.2869 96.9603L26.5351 100.287L25.554 104.583C21.6209 106.005 17.7616 107.642 14 109.498C31.7579 104.602 46.8778 101.717 61.5301 102.279L61.8792 100.749L63.7552 99.086L62.1489 99.5679L62.3638 98.6276L62.8178 96.6395L64.3645 95.5038L63.0062 95.8147L63.4783 93.7472L64.3645 93.2541L63.5477 93.4439L64.3645 89.8666L65.4147 94.4658H64.3645L65.4979 94.8297L65.9528 96.8851L64.3645 96.8092L66.082 97.3885L66.3651 98.6276L66.7676 100.39L64.8949 100.252L66.9672 101.264L67.291 102.683C68.6927 102.826 70.0923 103.004 71.492 103.216L75.2433 99.8905L72.0313 100.854L72.4605 98.9735L73.3686 94.9969L76.4619 92.7257L73.7451 93.3479L74.6896 89.2123L76.4619 88.2272L74.8281 88.6059L76.4619 81.4513L78.5622 90.65H76.4619L78.7285 91.3776L79.638 95.4887L76.4619 95.3363L79.8974 96.4953L80.4627 98.9735L81.2683 102.499L77.5226 102.223L81.6672 104.247L81.9445 105.46C90.9161 107.959 100.09 111.992 109.962 117.892C135.492 133.151 175.923 127.376 195 105.88C186.829 109.912 178.787 113.106 170.738 115.152L170.598 114.54L168.526 113.527L170.399 113.665L169.996 111.903L169.713 110.664L167.995 110.084L169.584 110.161L169.128 108.104L167.995 107.74H169.046L167.995 103.141L167.178 106.719L167.995 106.529L167.109 107.022L166.637 109.09L167.995 108.779L166.449 109.915L165.995 111.903L165.78 112.843L167.386 112.361L165.51 114.024L164.964 116.417H164.967C164.802 116.447 164.637 116.476 164.472 116.506L164.283 115.677L160.992 114.069L163.965 114.288L163.326 111.489L162.877 109.521L160.149 108.6L162.672 108.721L161.949 105.456L160.149 104.878H161.816L160.149 97.5738L158.852 103.256L160.149 102.955L158.741 103.737L157.992 107.021L160.149 106.527L157.693 108.331L156.972 111.489L156.631 112.983L159.182 112.217L156.202 114.858L156.177 114.964L155.558 112.249L154.991 109.771L151.556 108.612L154.733 108.764L153.823 104.653L151.556 103.925H153.657L151.556 94.7265L149.923 101.881L151.556 101.502L149.784 102.487L149.692 102.889L134.6 90.3557L154.39 92.4338L136.028 83.3254L137.104 87.2686L127.164 79.6598L122.09 79.9671L119.312 77.6603L135.521 79.5488L134.255 73.3285L174.271 100.822Z" fill="#F18929"/>
</svg>
