<svg width="32" height="32" viewBox="0 0 32 32" fill="none" xmlns="http://www.w3.org/2000/svg">
<circle cx="16" cy="16" r="16" fill="#0369A1"/>
<path d="M7.692 20.096C7.444 20.096 7.252 20.028 7.116 19.892C6.988 19.748 6.924 19.552 6.924 19.304V12.224C6.924 11.968 6.988 11.776 7.116 11.648C7.252 11.512 7.444 11.444 7.692 11.444C7.94 11.444 8.128 11.512 8.256 11.648C8.392 11.776 8.46 11.968 8.46 12.224V15.284H8.484L11.928 11.828C12.056 11.7 12.184 11.604 12.312 11.54C12.44 11.476 12.584 11.444 12.744 11.444C12.976 11.444 13.14 11.504 13.236 11.624C13.34 11.744 13.38 11.884 13.356 12.044C13.34 12.204 13.264 12.352 13.128 12.488L9.624 15.956L9.636 15.26L13.296 18.98C13.464 19.14 13.552 19.308 13.56 19.484C13.568 19.66 13.512 19.808 13.392 19.928C13.28 20.04 13.112 20.096 12.888 20.096C12.696 20.096 12.54 20.056 12.42 19.976C12.308 19.896 12.176 19.78 12.024 19.628L8.484 16.088H8.46V19.304C8.46 19.552 8.396 19.748 8.268 19.892C8.14 20.028 7.948 20.096 7.692 20.096ZM17.6461 20.096C17.4301 20.096 17.2541 20.044 17.1181 19.94C16.9901 19.836 16.8861 19.672 16.8061 19.448L14.2981 12.356C14.2101 12.1 14.2261 11.884 14.3461 11.708C14.4741 11.532 14.6861 11.444 14.9821 11.444C15.1981 11.444 15.3661 11.496 15.4861 11.6C15.6061 11.696 15.7021 11.852 15.7741 12.068L17.9341 18.476H17.4541L19.7101 12.08C19.7901 11.864 19.8901 11.704 20.0101 11.6C20.1301 11.496 20.2861 11.444 20.4781 11.444C20.6701 11.444 20.8221 11.496 20.9341 11.6C21.0461 11.704 21.1421 11.868 21.2221 12.092L23.4061 18.476H22.9861L25.1821 12.068C25.2541 11.86 25.3501 11.704 25.4701 11.6C25.5901 11.496 25.7541 11.444 25.9621 11.444C26.2181 11.444 26.4061 11.532 26.5261 11.708C26.6461 11.884 26.6621 12.1 26.5741 12.356L24.0421 19.46C23.9621 19.676 23.8581 19.836 23.7301 19.94C23.6021 20.044 23.4301 20.096 23.2141 20.096C22.9981 20.096 22.8261 20.044 22.6981 19.94C22.5701 19.836 22.4661 19.672 22.3861 19.448L20.2981 13.496H20.5741L18.4621 19.46C18.3821 19.676 18.2781 19.836 18.1501 19.94C18.0301 20.044 17.8621 20.096 17.6461 20.096Z" fill="white"/>
</svg>
